<svg xmlns="http://www.w3.org/2000/svg" viewBox="0 0 128 128" width="128" height="128"><defs><linearGradient id="m" x1="0.15" y1="0" x2="0.85" y2="1"><stop offset="0" stop-color="#ffd2a8"/><stop offset="0.5" stop-color="#d98a52"/><stop offset="1" stop-color="#8a4a22"/></linearGradient><radialGradient id="p" cx="0.5" cy="0.38" r="0.75"><stop offset="0" stop-color="#3b2416"/><stop offset="1" stop-color="#170d07"/></radialGradient><radialGradient id="g" cx="0.5" cy="0.45" r="0.5"><stop offset="0" stop-color="#ff9a57" stop-opacity="0.42"/><stop offset="1" stop-color="#ff9a57" stop-opacity="0"/></radialGradient><linearGradient id="s" x1="0" y1="0" x2="0" y2="1"><stop offset="0" stop-color="#fff" stop-opacity="0.5"/><stop offset="0.55" stop-color="#fff" stop-opacity="0"/></linearGradient></defs><g fill="url(#m)" stroke="url(#m)"><circle cx="64" cy="64" r="57"/></g><g fill="url(#s)" stroke="none" opacity="0.55"><circle cx="64" cy="64" r="57"/></g><g transform="translate(64 64) scale(0.8) translate(-64 -64)"><g fill="url(#p)" stroke="url(#p)"><circle cx="64" cy="64" r="57"/></g><g fill="url(#g)" stroke="none"><circle cx="64" cy="64" r="57"/></g></g><g transform="translate(64 64) scale(0.8) translate(-64 -64)" fill="none" stroke="#ffd2a8" stroke-opacity="0.45" stroke-width="1.6"><circle cx="64" cy="64" r="57"/></g><g transform="translate(34 34) scale(2.5)" fill="none" stroke="#ffe6d3" stroke-width="1.7" stroke-linecap="round" stroke-linejoin="round"><path d="M7.500 4h9v5.500a4.500 4.500 0 0 1-9 0z"/><path d="M7.500 5.500h-3V7a3 3 0 0 0 3 3M16.500 5.500h3V7a3 3 0 0 1-3 3"/><path d="M12 14v3.500"/><path d="M9 17.500h6v3H9z"/></g></svg>
