<svg xmlns="http://www.w3.org/2000/svg" viewBox="0 0 128 128" width="128" height="128"><defs><linearGradient id="m" x1="0.15" y1="0" x2="0.85" y2="1"><stop offset="0" stop-color="#a8f0ff"/><stop offset="0.5" stop-color="#9a86ff"/><stop offset="1" stop-color="#ff7bd5"/></linearGradient><radialGradient id="p" cx="0.5" cy="0.38" r="0.75"><stop offset="0" stop-color="#2a1f66"/><stop offset="1" stop-color="#0d0a26"/></radialGradient><radialGradient id="g" cx="0.5" cy="0.45" r="0.5"><stop offset="0" stop-color="#b9a6ff" stop-opacity="0.42"/><stop offset="1" stop-color="#b9a6ff" stop-opacity="0"/></radialGradient><linearGradient id="s" x1="0" y1="0" x2="0" y2="1"><stop offset="0" stop-color="#fff" stop-opacity="0.5"/><stop offset="0.55" stop-color="#fff" stop-opacity="0"/></linearGradient></defs><g fill="url(#m)" stroke="url(#m)"><polygon points="64,8 103.6,24.4 120,64 103.6,103.6 64,120 24.4,103.6 8,64 24.4,24.4" stroke-width="6" stroke-linejoin="round"/></g><g fill="url(#s)" stroke="none" opacity="0.55"><polygon points="64,8 103.6,24.4 120,64 103.6,103.6 64,120 24.4,103.6 8,64 24.4,24.4"/></g><g transform="translate(64 64) scale(0.8) translate(-64 -64)"><g fill="url(#p)" stroke="url(#p)"><polygon points="64,8 103.6,24.4 120,64 103.6,103.6 64,120 24.4,103.6 8,64 24.4,24.4" stroke-width="6" stroke-linejoin="round"/></g><g fill="url(#g)" stroke="none"><polygon points="64,8 103.6,24.4 120,64 103.6,103.6 64,120 24.4,103.6 8,64 24.4,24.4"/></g></g><g transform="translate(64 64) scale(0.8) translate(-64 -64)" fill="none" stroke="#a8f0ff" stroke-opacity="0.45" stroke-width="1.6"><polygon points="64,8 103.6,24.4 120,64 103.6,103.6 64,120 24.4,103.6 8,64 24.4,24.4" stroke-linejoin="round"/></g><g stroke="#fff" stroke-opacity="0.22" stroke-width="1.2" fill="none"><path d="M64 8v14M64 106v14M8 64h14M106 64h14M24.4 24.4l10 10M93.600 93.600l10 10M103.600 24.400l-10 10M34.400 93.600l-10 10"/></g><g transform="translate(34 29) scale(2.5)" fill="none" stroke="#ffffff" stroke-width="1.7" stroke-linecap="round" stroke-linejoin="round"><path d="M4 17.500L3 8l5 4 4-6.500 4 6.500 5-4-1 9.500z"/><path d="M4.500 20.500h15"/></g><g fill="#a8f0ff"><circle cx="50.5" cy="99" r="2.6"/><circle cx="59.5" cy="99" r="2.6"/><circle cx="68.5" cy="99" r="2.6"/><circle cx="77.5" cy="99" r="2.6"/></g></svg>
