<svg xmlns="http://www.w3.org/2000/svg" viewBox="0 0 128 128" width="128" height="128"><defs><linearGradient id="m" x1="0.15" y1="0" x2="0.85" y2="1"><stop offset="0" stop-color="#ffd2a8"/><stop offset="0.5" stop-color="#d98a52"/><stop offset="1" stop-color="#8a4a22"/></linearGradient><radialGradient id="p" cx="0.5" cy="0.38" r="0.75"><stop offset="0" stop-color="#3b2416"/><stop offset="1" stop-color="#170d07"/></radialGradient><radialGradient id="g" cx="0.5" cy="0.45" r="0.5"><stop offset="0" stop-color="#ff9a57" stop-opacity="0.42"/><stop offset="1" stop-color="#ff9a57" stop-opacity="0"/></radialGradient><linearGradient id="s" x1="0" y1="0" x2="0" y2="1"><stop offset="0" stop-color="#fff" stop-opacity="0.5"/><stop offset="0.55" stop-color="#fff" stop-opacity="0"/></linearGradient></defs><g fill="url(#m)" stroke="url(#m)"><circle cx="64" cy="64" r="57"/></g><g fill="url(#s)" stroke="none" opacity="0.55"><circle cx="64" cy="64" r="57"/></g><g transform="translate(64 64) scale(0.8) translate(-64 -64)"><g fill="url(#p)" stroke="url(#p)"><circle cx="64" cy="64" r="57"/></g><g fill="url(#g)" stroke="none"><circle cx="64" cy="64" r="57"/></g></g><g transform="translate(64 64) scale(0.8) translate(-64 -64)" fill="none" stroke="#ffd2a8" stroke-opacity="0.45" stroke-width="1.6"><circle cx="64" cy="64" r="57"/></g><g transform="translate(34 34) scale(2.5)" fill="none" stroke="#ffe6d3" stroke-width="1.7" stroke-linecap="round" stroke-linejoin="round"><path d="M7.500 7h9a4.500 4.500 0 0 1 4.500 4.500v2.800a2.700 2.700 0 0 1-4.900 1.500L15 14.500H9l-1.100 1.300A2.700 2.700 0 0 1 3 14.300v-2.800A4.500 4.500 0 0 1 7.500 7z"/><path d="M8 9.500v3M6.500 11h3"/><path d="M15.500 10h.01M17.500 12h.01"/></g></svg>
