<svg xmlns="http://www.w3.org/2000/svg" viewBox="0 0 128 128" width="128" height="128"><defs><linearGradient id="m" x1="0.15" y1="0" x2="0.85" y2="1"><stop offset="0" stop-color="#ffffff"/><stop offset="0.5" stop-color="#b8c2d3"/><stop offset="1" stop-color="#6c7689"/></linearGradient><radialGradient id="p" cx="0.5" cy="0.38" r="0.75"><stop offset="0" stop-color="#2a3142"/><stop offset="1" stop-color="#0e121b"/></radialGradient><radialGradient id="g" cx="0.5" cy="0.45" r="0.5"><stop offset="0" stop-color="#c5d2ea" stop-opacity="0.42"/><stop offset="1" stop-color="#c5d2ea" stop-opacity="0"/></radialGradient><linearGradient id="s" x1="0" y1="0" x2="0" y2="1"><stop offset="0" stop-color="#fff" stop-opacity="0.5"/><stop offset="0.55" stop-color="#fff" stop-opacity="0"/></linearGradient></defs><g fill="url(#m)" stroke="url(#m)"><polygon points="64,11 109.9,37.5 109.9,90.5 64,117 18.1,90.5 18.1,37.5" stroke-width="8" stroke-linejoin="round"/></g><g fill="url(#s)" stroke="none" opacity="0.55"><polygon points="64,11 109.9,37.5 109.9,90.5 64,117 18.1,90.5 18.1,37.5"/></g><g transform="translate(64 64) scale(0.8) translate(-64 -64)"><g fill="url(#p)" stroke="url(#p)"><polygon points="64,11 109.9,37.5 109.9,90.5 64,117 18.1,90.5 18.1,37.5" stroke-width="8" stroke-linejoin="round"/></g><g fill="url(#g)" stroke="none"><polygon points="64,11 109.9,37.5 109.9,90.5 64,117 18.1,90.5 18.1,37.5"/></g></g><g transform="translate(64 64) scale(0.8) translate(-64 -64)" fill="none" stroke="#ffffff" stroke-opacity="0.45" stroke-width="1.6"><polygon points="64,11 109.9,37.5 109.9,90.5 64,117 18.1,90.5 18.1,37.5" stroke-linejoin="round"/></g><g transform="translate(34 29) scale(2.5)" fill="none" stroke="#f3f6fb" stroke-width="1.7" stroke-linecap="round" stroke-linejoin="round"><rect x="3" y="5" width="18" height="14" rx="2.500"/><circle cx="8.500" cy="10.500" r="2"/><path d="M5.500 16c.4-1.600 1.500-2.500 3-2.500s2.600.9 3 2.500"/><path d="M14.500 10h4M14.500 13.500h4"/></g><g fill="#ffffff"><circle cx="64" cy="99" r="2.6"/></g></svg>
